Coordinates
version=1
nRows=10
nColumns=40
inDegrees=yes

Units are S.I. units (second, meters, Newtons, ...)
Angles are in degrees.

endheader
time	pelvis_tilt	pelvis_list	pelvis_rotation	pelvis_tx	pelvis_ty	pelvis_tz	hip_flexion_r	hip_adduction_r	hip_rotation_r	knee_angle_r	knee_angle_r_beta	ankle_angle_r	subtalar_angle_r	mtp_angle_r	hip_flexion_l	hip_adduction_l	hip_rotation_l	knee_angle_l	knee_angle_l_beta	ankle_angle_l	subtalar_angle_l	mtp_angle_l	lumbar_extension	lumbar_bending	lumbar_rotation	arm_flex_r	arm_add_r	arm_rot_r	elbow_flex_r	pro_sup_r	wrist_flex_r	wrist_dev_r	arm_flex_l	arm_add_l	arm_rot_l	elbow_flex_l	pro_sup_l	wrist_flex_l	wrist_dev_l
     21.64250000	     -3.46825733	     -5.47324906	     -0.58934265	      1.05751957	      0.91654660	      0.49031362	     23.93433765	      2.13554034	    -14.27077513	     23.32851769	     23.32851769	      5.75573803	      0.09753796	     -2.91095792	      6.53667569	    -12.46955186	     -4.87825065	     47.04066586	     47.04066586	     12.99390336	    -17.25745899	      0.09376472	    -11.96619468	      7.51548638	      2.32127975	    -11.83465202	    -11.88925446	     -2.58948132	     27.91614912	     45.95397380	      0.00000000	      0.00000000	     19.31316695	    -16.51157611	     -5.27203110	    101.57933740	     48.83632010	      0.00000000	      0.00000000
     21.65428571	     -3.55150586	     -5.54611035	     -0.26004730	      1.05684931	      0.91829088	      0.49219457	     23.04767319	      2.26529006	    -14.88324025	     22.58054573	     22.58054573	      6.06714058	      0.88541919	     -3.27157158	      8.99643584	    -12.83469859	     -4.00807719	     50.98556682	     50.98556682	     12.76097519	    -17.67756996	      4.15142445	    -11.99022577	      7.61970653	      2.36833407	    -10.36393714	    -12.20287716	     -1.87118933	     28.92499752	     45.88535062	      0.00000000	      0.00000000	     18.41152274	    -16.04503739	     -4.66076036	     99.68565432	     48.75428647	      0.00000000	      0.00000000
     21.66607143	     -3.58210358	     -5.68348673	      0.04570887	      1.05607298	      0.91998598	      0.49415655	     22.13151478	      2.54294008	    -15.29425829	     21.84318879	     21.84318879	      6.38335002	      1.31326436	     -3.29878329	     11.25618917	    -13.37602055	     -3.45413243	     54.26933255	     54.26933255	     11.43779248	    -18.27028247	      4.64173226	    -12.14130225	      7.77545062	      2.43560086	     -8.56521055	    -12.44506338	     -1.86868914	     29.65623694	     45.87137917	      0.00000000	      0.00000000	     17.27225070	    -15.49516041	     -4.06866864	     98.54963224	     48.68756677	      0.00000000	      0.00000000
     21.67785714	     -3.70213101	     -5.80786934	      0.38742367	      1.05523496	      0.92142118	      0.49588640	     21.22845303	      2.77901038	    -15.85206299	     20.93156348	     20.93156348	      6.64812884	      2.07541942	     -3.40142557	     13.67094888	    -13.83193278	     -2.81770474	     57.29143706	     57.29143706	     10.86483251	    -18.60338925	      5.85668682	    -12.07559004	      7.92926211	      2.32861462	     -6.82869171	    -12.71110735	     -1.81250703	     30.41564396	     45.85228776	      0.00000000	      0.00000000	     16.07581490	    -15.29857080	     -3.54937890	     96.45719819	     48.60600426	      0.00000000	      0.00000000
     21.68964286	     -3.68339300	     -5.69947921	      0.64504343	      1.05437704	      0.92307419	      0.49740884	     20.27741588	      2.70661717	    -16.53085765	     20.25308855	     20.25308855	      6.82468355	      3.20399457	     -4.10116808	     15.98107072	    -13.85075735	     -2.16275092	     60.09757347	     60.09757347	     12.22191878	    -18.59967982	     11.96014323	    -12.12187553	      7.82684357	      2.97036979	     -5.35623421	    -13.16484312	     -1.09685223	     31.13581284	     45.79608326	      0.00000000	      0.00000000	     15.97775687	    -14.45601294	     -2.45229742	     92.51206661	     48.45598874	      0.00000000	      0.00000000
     21.70142857	     -3.72070596	     -5.80187045	      0.91870513	      1.05346739	      0.92442621	      0.49909805	     19.37578911	      2.98643573	    -16.84660235	     19.47942633	     19.47942633	      7.05593742	      3.59607541	     -4.10062371	     18.15228396	    -14.28785008	     -1.77931455	     62.07443511	     62.07443511	     11.90360155	    -18.76209949	     12.30078970	    -12.20453158	      7.90862150	      2.95931575	     -3.40450020	    -13.47712714	     -1.13775169	     32.03090543	     45.77988932	      0.00000000	      0.00000000	     14.60230187	    -14.30642956	     -1.81390629	     90.88402269	     48.37342152	      0.00000000	      0.00000000
     21.71321429	     -3.67835671	     -5.76102252	      1.14928704	      1.05251247	      0.92583184	      0.50057700	     18.42278858	      3.06067259	    -17.29271753	     18.78701001	     18.78701001	      7.23904412	      4.39887173	     -4.48231801	     20.19254541	    -14.46479336	     -1.43113973	     63.62347560	     63.62347560	     12.43263302	    -18.84280979	     14.38950288	    -12.29512617	      7.86717541	      3.39108232	     -1.52829421	    -13.92146089	     -0.73063925	     32.64817832	     45.75309114	      0.00000000	      0.00000000	     14.06781385	    -13.75255847	     -0.84259629	     87.32161519	     48.24134878	      0.00000000	      0.00000000
     21.72500000	     -3.64754024	     -5.79635805	      1.37846465	      1.05153916	      0.92705936	      0.50207350	     17.50062643	      3.26811799	    -17.56104520	     18.09932878	     18.09932878	      7.48821091	      4.86994193	     -4.51418433	     22.12379036	    -14.77257019	     -1.19184515	     64.54390124	     64.54390124	     12.46112531	    -18.90107740	     14.51541967	    -12.42459748	      7.87112892	      3.32450064	      0.67407191	    -14.22494987	     -0.77279651	     33.50717491	     45.74074149	      0.00000000	      0.00000000	     12.72348702	    -13.64888739	     -0.28521362	     85.13097855	     48.15661158	      0.00000000	      0.00000000
     21.73678571	     -3.56868210	     -5.77811314	      1.58234389	      1.05053933	      0.92828180	      0.50341291	     16.55707599	      3.39208647	    -17.89139621	     17.47889030	     17.47889030	      7.75833543	      5.50860143	     -4.65550834	     23.89101788	    -14.95999144	     -0.99224865	     64.92151616	     64.92151616	     12.64136578	    -18.90933798	     14.80412277	    -12.56733781	      7.82009020	      3.51870192	      2.91414113	    -14.56426383	     -0.62493888	     34.00704320	     45.73329263	      0.00000000	      0.00000000	     11.78755097	    -13.22656989	      0.23131002	     81.84181362	     48.05608509	      0.00000000	      0.00000000
     21.74857143	     -3.53988603	     -5.78791976	      1.78235491	      1.04942921	      0.92926312	      0.50462274	     15.69920571	      3.54236940	    -18.20448158	     16.88994403	     16.88994403	      8.01005136	      6.06928640	     -4.79087452	     25.63100442	    -15.12684443	     -0.79767011	     64.80138270	     64.80138270	     12.81510196	    -18.88803832	     14.96310407	    -12.62960407	      7.82381617	      3.84976725	      5.20082569	    -14.95388936	     -0.38409031	     34.34229795	     45.72895998	      0.00000000	      0.00000000	     11.02432361	    -12.69823254	      0.76862166	     78.15163049	     47.94870204	      0.00000000	      0.00000000
